<svg xmlns="http://www.w3.org/2000/svg" version="1.1" xmlns:xlink="http://www.w3.org/1999/xlink" xmlns:svgjs="http://svgjs.dev/svgjs" width="2000" height="2250" viewBox="0 0 2000 2250"><g transform="matrix(1,0,0,1,0,0)"><svg viewBox="0 0 320 360" data-background-color="#ffffff" preserveAspectRatio="xMidYMid meet" height="2250" width="2000" xmlns="http://www.w3.org/2000/svg" xmlns:xlink="http://www.w3.org/1999/xlink"><g id="tight-bounds" transform="matrix(1,0,0,1,0,0)"><svg viewBox="0 0 320 360" height="360" width="320"><g><svg></svg></g><g><svg viewBox="0 0 320 360" height="360" width="320"><g><path d="M165.217 303.356c-1.404-1.755-2.809-0.702-2.808-1.755-8.426 2.106-24.223-3.511-30.894-2.809 1.404-2.106-2.106-1.755-2.106-3.159-1.404 2.106-2.809 0-4.915 0.702-2.106-5.266-10.532-1.404-11.585-8.075-4.915 0-6.67-2.809-11.586-5.617 0.351-0.351 0.702-0.351 1.054-0.702-2.457-0.351-2.457-1.755-4.564-1.755l0.702-1.405c-3.862-0.702-5.266-6.67-10.883-8.776-1.755-0.351-5.617-6.319-7.723-7.724-1.053-0.702-2.809-0.702-0.352-1.053-0.351-0.351-0.351-1.053 0-1.404-2.457-0.702-2.809-2.809-5.968-3.862-0.351-1.053 0.702-1.755 0-2.457-0.702-0.351-1.755 0.351-2.457 0-0.351 6.319 6.67 7.021 8.777 12.287-0.702-0.702-1.755-2.809-2.458-1.404-0.351 1.053 2.809 4.915 2.809 2.808-1.053 0.702-1.404-1.053-0.703-1.404 1.053 1.755 3.16 1.404 3.16 2.809-1.053 1.053-2.457-1.053-2.106 0.702 3.16 1.755 2.809 3.511 4.563 5.968-1.404-1.755-1.755 1.404-3.159 0-0.351-5.266-6.319-4.213-6.319-9.479-0.702-1.755-1.404-0.351-2.458-1.053 1.404-1.404-4.213-6.319-4.213-4.564-1.755-2.106-0.702-2.809-1.053-4.213-1.404-0.351-0.351 1.404-1.404 0.351 1.404-2.457-1.755-5.617-3.862-8.074l1.405-0.702c-2.457-1.404-2.809-4.213-4.564-7.373-2.106 3.16 4.213 10.181 3.159 11.585 0 0.351 2.457 3.16 3.16 4.564 2.809 4.915 4.915 10.883 8.777 13.692-0.702-0.351-0.351-2.457 0.702-1.404 0 1.053-0.702 2.106-0.702 3.159 2.106 2.106 3.862 3.862 5.968 5.968-4.564-2.809-9.128-5.617-12.288-9.83 1.755-0.351 3.511 2.809 4.915 2.458-3.511-2.809-2.457-3.862-3.861-7.372-1.404-1.053 0.351 1.404-1.054 1.755-4.564-4.213-8.075-6.67-10.181-10.532 0.351-0.351 0.702-0.702 0.703-1.404-0.351-0.351-0.351-0.351-0.703-0.702 2.106 2.106 2.809 3.862 5.266 4.212-1.053-1.053 0-1.404-1.404-2.457-0.702-1.404-1.755 0.702-2.457-0.351 0.702-1.053 0-2.457 0-3.511-0.702 0-1.404 0-1.756-1.053-0.702-0.351-1.053 0-1.404 0.702-0.351-0.351-0.351-1.053-0.702-1.404v-0.351c-0.351-0.351-0.702-1.053-1.053-1.405-2.809-7.372-4.564-17.202-8.426-23.521 1.053-4.213-0.702-12.638-1.755-14.745 1.053-1.755 0.351-9.83-0.351-11.234-1.755 0.702 0.351 4.564-1.404 5.617-1.755-7.723 1.053-16.5 0.351-23.521 0.702 0 1.404 0 1.404-0.351-1.053-1.053 0.702-3.16 0.351-5.617 1.404-3.16-3.16 4.564-3.16 7.723-0.351 0.702-1.755 0-1.404 1.756 0 2.457 0.702 7.372-0.702 10.883-0.702 0-0.702-0.702-1.404-0.351-0.351 1.755-0.702 3.862-1.053 5.617-0.351-0.702-0.702-1.755-0.703-2.107-1.755-8.777 0-18.958-0.702-26.33 1.404 0 1.404-2.106 2.458-2.808-0.351 2.809-1.053 6.319 0.702 7.021 1.404-13.692 4.213-28.787 10.532-43.532 4.564-10.883 11.234-21.766 19.308-30.543 0.702 1.053-0.351 3.511 0 4.564 7.021-7.372 11.585-16.149 19.309-21.064 0.351 1.755-3.16 3.16-3.16 4.564 3.16-3.16 4.213-2.106 7.724-3.159 1.053-1.404-1.404 0-1.756-1.405 2.106-1.404 3.511-3.16 4.915-4.212 0 0.351-0.351 0.351-0.351 0.702 3.862-1.053 4.213-3.16 7.022-3.862-0.351-0.351-1.053-0.702-2.107-0.351 0.702-0.351 1.755-1.053 2.809-1.404-0.351 0-0.351 0.351-0.702 0.351 2.106-1.053 0.351 0.351 0.351 1.053 0.351 0 0.702-0.351 0.702-0.351-2.106 1.404-3.511 2.106-4.213 4.564 1.053-0.702 1.404 0 2.809-1.054 1.404-0.702-0.351-1.755 0.702-2.457 1.053 0.702 2.457 0.351 3.51 0.351 0-0.702 0.351-1.404 1.054-1.755 0.351-0.702 0-1.053-0.352-1.053 0.351-0.351 0.702-0.351 1.405-0.703 0 0 0.351 0 0.351 0.351 5.968-2.809 12.638-5.266 18.957-7.372 3.862-0.351 8.777-0.351 10.883-2.808-0.702 0-1.404 0.351-1.755 0 0.351 0 1.053-0.351 1.404-0.351 0.702 0.702 1.755 0 0.702 1.404 0.351 0 0.351 0 0.703-0.351 0 0.351 0 0.351 0.351 0.702 0.351 0 0.702-0.351 1.053-1.053 0.351 0 0.702 0 1.053-0.351l-0.351 0.351c2.809-0.702 5.266-0.351 9.128-1.054 0-0.351 0-0.702 0-1.053 0.702 0 1.053-0.351 1.755-0.351v0.351c1.404-0.702 2.809 0.702 2.808 0 0.351 0 0.351 0 0.703 0 0 0.702-0.351 1.053-0.351 1.405 1.755 0 2.809 0 3.51-1.054-0.351-0.351-0.702-0.351-1.053-0.351 0.702 0 1.404-0.351 2.106-0.702 1.053 0.351 1.404 0.702 1.405 2.107 1.755-3.16 7.372 0.702 9.829 0 1.053 0 0.702-1.404 1.405-2.107 0.351 0 0.702 0 1.053 0 1.755 1.404 4.213 2.809 7.372 3.16-2.809-0.702 0.351-1.053 0.702-1.405-0.702 0-0.702-0.351-0.702-0.702 1.053 0 2.106 0.351 3.16 0.351 0 0.702 0.351 1.053 1.053 1.054 0.702 0 0.702-0.351 0.702-1.054 1.053 0 1.755 0 2.809 0.351-0.351 1.404 1.755 1.755 2.457 2.809-2.809-0.702-5.968-1.755-7.021 0 11.234 2.457 23.521 5.968 35.457 11.936 0 0 0 0 0 0.351h0.352c2.106 1.053 4.213 2.106 6.319 3.16 1.404 0.702 2.457 1.404 3.861 2.457 0 0.351 0 0.702 0.703 0.702h0.351c1.404 1.053 2.809 1.755 4.212 2.809 1.404 2.106 2.809 4.915 5.266 4.213 5.266 8.075 10.883 11.234 15.447 19.659 0.351-1.404 1.404 3.16 3.16 3.511-2.809-0.351 1.755 1.755-1.053 1.404 2.457 2.457 3.16 3.511 3.51 6.319-0.702-1.404-1.053-1.755-1.404-0.351-0.351 2.106 2.457-0.351 3.511 1.756-2.106 0-1.404 1.404-1.054 3.159 1.053-1.053 0.702-2.106 1.756-1.755 1.404 1.404-0.702 1.755-0.351 2.809 1.053-1.404 1.404-0.702 2.808 0-1.755 0.351 1.053 2.809-1.053 1.755 1.404 1.755 1.755 2.809 1.053 4.564-1.404-2.106-0.351-3.511-2.457-3.16 4.213 3.511 2.106 11.585 7.021 12.287-3.16 0.702 0 2.106-1.755 2.458 2.106 0.702 1.053 3.511 3.51 4.213-0.351 1.755-1.053 2.809-1.404 4.563 1.053 1.404 1.404 4.213 3.16 4.564-1.053 1.053-0.351 3.862-1.404 4.915 1.404-0.702 2.106-0.702 3.159 0.702-1.755 1.404-0.351 2.809-1.404 3.16 3.16 8.075-0.702 24.575 1.053 30.894-2.106-1.053-1.404 2.457-2.808 2.457 2.457 1.053 0.351 2.809 1.404 4.564-4.915 2.809 0 10.532-6.67 12.287 0.702 4.915-2.106 7.021-4.213 12.288-0.351-0.351-0.351-0.702-0.702-1.054-0.351 2.457-1.755 2.809-1.054 4.915l-1.404-0.702c0 3.862-5.968 5.968-7.372 11.936-0.351 1.755-5.617 6.319-7.022 8.777-0.702 1.053-0.351 2.809-1.053 0.351-0.351 0.351-1.053 0.351-1.404 0.351-0.351 2.457-2.457 3.16-3.16 6.319-0.702 0.351-1.755-0.702-2.457 0.351 0 0.702 0.702 1.755 0.351 2.458 6.319-0.351 6.319-7.723 11.234-10.181-0.351 1.053-2.457 2.106-1.053 2.808 1.053 0 4.213-3.511 2.457-3.159 1.053 0.702-1.053 1.404-1.404 1.053 1.755-1.404 1.053-3.16 2.458-3.511 1.053 0.702-1.053 2.457 1.053 2.107 1.404-3.16 3.16-3.511 5.266-5.266-1.404 1.404 1.755 1.755 0.351 3.159-5.266 1.053-3.511 7.021-8.777 7.724-1.404 1.053-0.351 1.404-0.702 2.457-1.755-1.053-5.617 4.915-4.213 4.564-1.755 1.755-2.809 1.053-4.212 1.404-0.351 1.404 1.404 0.351 0.702 1.405-2.457-1.053-5.617 2.457-7.724 4.915l-1.053-1.054c-1.053 2.809-3.862 3.16-7.021 5.266 3.511 1.755 9.479-5.617 11.234-4.564 0.351 0 3.16-2.809 4.213-3.861 4.564-3.511 10.181-6.319 12.287-10.181-0.351 0.702-2.457 0.702-1.404-0.351 1.053-0.351 2.106 0.351 3.159 0.351 5.617-7.723 12.638-14.043 17.905-23.17 0.351-0.351 0.702-1.053 1.053-1.756-0.702 2.106-1.755 3.862-2.458 5.968-5.617 3.862-7.723 15.096-14.393 16.851 0.351 3.862-3.16 4.915-4.915 9.479-1.053 1.404-1.755-1.053-2.809 0.702 1.053 4.915-8.777 4.564-8.425 9.128-0.702 0.351-1.755 0.702-2.458 1.404h-0.351c-0.351 0.351-0.351 0.351-0.702 0.702-1.755 1.053-3.16 2.106-4.564 3.16-4.915 2.809-11.585 4.915-16.851 7.723v-0.351c-1.404 0.702-3.16 0.351-2.809 1.756-1.053 0.702-2.106 1.404-3.159 2.106-0.351 0-0.351 0-0.702 0 0 0-0.351-0.351-0.702-0.351-0.702 0-0.702 0-1.054 0.351-4.564 0.351-10.532 2.457-12.287 3.862-1.755-1.053-9.83 0.702-11.234 1.404 0.702 1.053 2.809 0 4.564 0-1.053 0.351-2.106 0.702-2.458 1.404-0.351 0-0.351 0-0.702 0-0.351-1.053-1.404 0-1.755-0.351h0.351c-0.351-1.404-1.404-2.106-3.16-1.755 0 0.702 0 1.053-0.351 1.755 0.702 0 2.809-1.053 2.809 0-0.351 0-0.351 0.351 0 0.351-0.702 0.702-1.755 0.702-2.458 1.054-1.404 0-3.16 0-4.563 0-0.351-0.351-0.702-0.351-1.405-0.703-0.351 0.351-1.053 0.351-1.404 0.703-2.106 0-4.564 0.351-6.319 0.702 0-0.702 0-1.404-0.702-1.405-1.053 1.404-3.16-0.351-5.617 0.352-2.457-0.702 1.404 1.053 4.915 1.755-0.351 0.351-0.702 0.702-1.756 1.053M116.068 308.271c-4.915-4.564-15.096-6.67-16.851-10.181-2.809-0.351-7.021-5.617-10.532-6.319 1.755 0 0.351-1.053 0-1.755-0.702 0.702-1.404 1.053-2.106 1.053 0-2.809-2.809-4.564-5.266-6.319 1.755 1.053 3.16 1.755 5.266 2.106 0-0.702 0-1.404 0.702-1.404 2.457 2.457 5.266 4.915 8.425 7.372 4.213 3.862 25.979 13.692 29.841 15.447 0 0-0.702 1.404-0.351 1.404 1.755 1.053 3.16-1.053 3.511 1.404-5.617 0.702-7.723-3.16-12.639-2.808M277.909 226.824v0.351 0c-0.351 0 0-0.351 0-0.351M136.079 64.281c-0.351 0.351-0.702 0.351-0.702 0.351 0-0.351 0.351-0.351 0.702-0.351M129.409 66.036c0 0.351 0 0.351 0 0 0 0.351 0 0.351 0 0 0 0.351 0 0 0 0M106.238 73.408v0c0.351-0.351 0.351-0.351 0.703-0.351-0.351 0-0.702 0.351-0.703 0.351M162.409 61.823c-0.702 0-1.053 0-1.404-0.351 0.351 0 0.702 0 1.053 0h0.351c0 0 0 0 0 0.351M168.728 62.525c-0.351-0.351-1.404-0.702-2.457-0.702 0-0.351 0.351-0.702 0.351-0.702 0.351 0 0.702 0 1.053 0 0 0 0.351 0 0.351 0.351 0 0 0 0 0-0.351 0.351 0 0.351 0 0.702 0 0.351 0.702 0.702 1.053 0 1.404M180.313 63.579c-1.755 0.351-2.809-0.351-4.564-1.405 1.053 0 2.457 0.351 3.511 0.702 0.351 0 0.702 0.351 1.053 0.703M305.292 113.43c-0.702 0.351-1.053 0.351-1.755-1.053-5.617-11.936-15.798-29.138-30.543-43.532-14.394-14.745-33.702-26.681-51.255-33.001 1.053 0.351 2.457 1.053 1.755 1.756-15.447-5.968-30.192-9.479-44.234-10.883-37.915-5.968-77.585 2.106-108.128 21.766 0.351 0.702 0.351 1.053-0.702 1.755-11.234 7.021-27.032 19.309-39.671 35.458-12.638 16.149-22.468 36.511-26.681 54.766 0.351-1.053 0.702-2.809 1.405-2.107-9.128 36.16-6.67 67.053 5.968 93.735 0.702-0.702-1.755-4.213 0.351-3.862 1.404 3.862 3.16 8.075 5.266 11.936 2.457 5.617 5.266 12.989 9.128 14.745-9.83-19.309-16.5-41.426-17.203-61.085 1.404 2.809 1.053 8.777 3.16 11.234 0.702-13.34-2.457-31.245 2.106-43.883-1.053 6.67-1.755 15.798-1.053 24.925 0 6.67 3.16 25.277 5.266 27.032-0.351-0.351-0.351-2.106 0-2.106 1.053 2.106-1.404 3.16 0.351 3.511 0-0.702 0.351-0.702 0.702-0.703 3.511 7.723 8.075 19.66 11.585 25.628 4.213 7.723 9.83 14.745 16.149 21.064 0 0.351 0.351 0.351 0.352 0.702 0.702 1.755 3.16 3.862 3.861 5.266 0.351 0.702-0.351 1.755 0 2.458 5.266 9.83 12.989 19.66 22.468 27.383 5.968 7.021 15.447 14.394 27.032 20.713 11.234 5.968 24.223 10.883 36.16 13.691 8.426 2.106 18.606 2.457 24.926 3.862 8.426 1.755 23.17-0.702 30.542-2.107 44.234-6.67 88.117-36.862 110.235-80.393 22.819-43.883 22.117-97.596 2.457-138.671" fill="#a057da" fill-rule="nonzero" stroke="none" stroke-width="1" stroke-linecap="butt" stroke-linejoin="miter" stroke-miterlimit="10" stroke-dasharray="" stroke-dashoffset="0" font-family="none" font-weight="none" font-size="none" text-anchor="none" style="mix-blend-mode: normal" data-fill-palette-color="tertiary"></path></g><g transform="matrix(1,0,0,1,80,135.93880389429762)"><svg viewBox="0 0 160 88.12239221140473" height="88.12239221140473" width="160"><g><svg viewBox="0 0 160 88.12239221140473" height="88.12239221140473" width="160"><g><svg viewBox="0 0 160 88.12239221140473" height="88.12239221140473" width="160"><g><svg viewBox="0 0 160 88.12239221140473" height="88.12239221140473" width="160"><g id="textblocktransform"><svg viewBox="0 0 160 88.12239221140473" height="88.12239221140473" width="160" id="textblock"><g><svg viewBox="0 0 160 88.12239221140473" height="88.12239221140473" width="160"><g transform="matrix(1,0,0,1,0,0)"><svg width="160" viewBox="-0.49 -37.55 70.21 38.669999999999995" height="88.12239221140473" data-palette-color="#a057da"><path d="M4.98-0.63L4.64-0.78Q4.49-0.68 4.35-0.59 4.2-0.49 4.05-0.39L4.05-0.39Q3.52-0.1 3.08-0.07 2.64-0.05 2.1 0.44L2.1 0.44Q1.9 0.2 1.81 0.2 1.71 0.2 1.46 0.2L1.46 0.2Q0.83 0.2 0.73-0.15L0.73-0.15Q0.54-0.1 0.12 0.1-0.29 0.29-0.49 0.39L-0.49 0.39Q-0.05-0.24 0.1-0.59 0.24-0.93 0.27-1.22 0.29-1.51 0.32-1.83 0.34-2.15 0.54-2.73L0.54-2.73Q0.63-2.93 0.68-3.13 0.73-3.32 0.83-3.56L0.83-3.56Q1.07-4.3 1.25-5.22 1.42-6.15 1.81-6.84L1.81-6.84Q1.81-7.67 2.17-8.4 2.54-9.13 2.78-9.91L2.78-9.91Q2.88-10.21 3.05-10.5 3.22-10.79 3.32-11.08L3.32-11.08Q3.52-11.57 3.64-12.04 3.76-12.5 3.91-12.94L3.91-12.94Q4.3-14.36 4.69-15.75 5.08-17.14 5.42-18.55L5.42-18.55Q5.47-18.8 5.54-19.09 5.62-19.38 5.71-19.63L5.71-19.63Q5.96-20.36 6.03-21.12 6.1-21.88 6.49-22.56L6.49-22.56Q6.45-22.9 6.52-23.19 6.59-23.49 6.69-23.83 6.79-24.17 6.88-24.46 6.98-24.76 7.03-24.9L7.03-24.9Q7.28-25.54 7.4-26.05 7.52-26.56 7.91-27.15L7.91-27.15Q7.91-27.15 8.06-27.66 8.2-28.17 8.4-28.81 8.59-29.44 8.74-30 8.89-30.57 8.89-30.66L8.89-30.66Q8.98-31.05 9.06-31.4 9.13-31.74 9.23-32.13L9.23-32.13Q9.33-32.37 9.42-32.54 9.52-32.71 9.62-32.96L9.62-32.96Q9.77-33.5 9.91-34.28 10.06-35.06 10.3-35.5L10.3-35.5Q10.45-35.84 10.86-36.06 11.28-36.28 11.57-36.52L11.57-36.52Q12.45-36.43 12.87-36.62 13.28-36.82 13.67-37.11L13.67-37.11Q13.92-37.06 14.14-36.99 14.36-36.91 14.6-36.91L14.6-36.91Q15.53-35.89 15.89-34.81 16.26-33.74 16.6-32.67L16.6-32.67Q16.75-32.13 16.89-31.62 17.04-31.1 17.24-30.62L17.24-30.62Q17.29-30.47 17.38-30.3 17.48-30.13 17.58-29.93L17.58-29.93Q17.82-29.54 17.99-29.1 18.16-28.66 18.31-28.22L18.31-28.22Q18.6-27.88 18.75-27.42 18.9-26.95 19.02-26.49 19.14-26.03 19.29-25.61 19.43-25.2 19.73-24.9L19.73-24.9Q19.82-24.37 20.07-23.85 20.31-23.34 20.41-22.75L20.41-22.75Q20.7-22.36 21.09-21.26 21.48-20.17 21.88-18.9 22.27-17.63 22.61-16.46 22.95-15.28 23.1-14.79L23.1-14.79Q23.19-14.4 23.49-13.79 23.78-13.18 24.02-12.7L24.02-12.7Q24.22-12.16 24.44-11.57 24.66-10.99 24.8-10.45L24.8-10.45Q24.9-9.91 25.02-9.42 25.15-8.94 25.29-8.4L25.29-8.4Q25.39-8.06 25.59-7.79 25.78-7.52 25.88-7.13L25.88-7.13Q26.07-6.74 26.15-6.4 26.22-6.05 26.46-5.66L26.46-5.66Q26.42-5.13 26.51-4.98 26.61-4.83 26.71-4.64L26.71-4.64Q26.9-3.61 27.15-3 27.39-2.39 27.39-1.71L27.39-1.71Q27.39-1.12 27.17-0.98 26.95-0.83 26.61-0.49L26.61-0.49Q26.22-0.15 25.95 0.05 25.68 0.24 25.15 0.24L25.15 0.24Q24.56 0.2 24.44 0.42 24.32 0.63 24.27 0.73L24.27 0.73Q23.68 0.68 23.51 0.71 23.34 0.73 23.17 0.73 23 0.73 22.83 0.81 22.66 0.88 22.46 1.12L22.46 1.12Q22.12 0.73 21.8 0.42 21.48 0.1 21.24-0.29L21.24-0.29Q21.24-1.12 21.02-2.25 20.8-3.37 20.56-4L20.56-4Q20.07-5.27 19.65-6.49 19.24-7.71 18.85-8.98L18.85-8.98Q18.7-9.52 18.53-9.96 18.36-10.4 18.16-10.89L18.16-10.89Q18.26-10.5 18.24-10.08 18.21-9.67 17.97-9.28L17.97-9.28Q17.87-9.18 17.68-9.03 17.48-8.89 17.48-8.79L17.48-8.79Q16.89-8.3 16.46-7.86L16.46-7.86Q16.5-6.98 16.21-6.64 15.92-6.3 15.58-6.01L15.58-6.01Q14.75-5.96 14.55-6.1 14.36-6.25 14.01-6.3L14.01-6.3Q13.82-6.35 13.62-6.32 13.43-6.3 13.23-6.3L13.23-6.3Q12.84-6.3 12.5-6.49L12.5-6.49Q12.35-6.59 12.28-6.69 12.21-6.79 12.11-6.88L12.11-6.88Q11.72-7.28 11.21-7.54 10.69-7.81 10.21-8.01L10.21-8.01Q9.81-8.35 9.4-8.72 8.98-9.08 8.54-9.33L8.54-9.33Q8.15-8.4 7.93-7.69 7.71-6.98 7.42-6.3L7.42-6.3Q6.88-4.64 6.54-3.39 6.2-2.15 5.76-0.88L5.76-0.88Q5.57-0.83 5.4-0.73 5.22-0.63 4.98-0.63L4.98-0.63ZM9.23-11.18L9.42-11.18Q9.81-11.87 10.13-11.94 10.45-12.01 10.69-12.3L10.69-12.3Q10.79-12.4 10.91-12.55 11.04-12.7 11.18-12.84L11.18-12.84Q11.33-12.94 11.52-13.04 11.72-13.13 11.87-13.28L11.87-13.28Q12.26-13.62 12.52-13.87 12.79-14.11 13.33-14.11L13.33-14.11Q14.16-14.11 14.7-13.7 15.23-13.28 16.02-13.13L16.02-13.13Q16.11-12.84 16.65-12.72 17.19-12.6 17.48-12.4L17.48-12.4Q16.99-13.62 16.72-14.87 16.46-16.11 16.06-17.33L16.06-17.33Q15.77-18.41 15.38-19.46 14.99-20.51 14.6-21.48L14.6-21.48Q14.26-22.46 14.01-23.39 13.77-24.32 13.38-25.2L13.38-25.2Q12.99-24.32 12.6-23.05 12.21-21.78 12.01-20.8L12.01-20.8Q12.01-20.36 11.96-20.12L11.96-20.12Q11.87-19.78 11.77-19.51 11.67-19.24 11.57-18.95L11.57-18.95Q10.94-17.04 10.42-15.09 9.91-13.13 9.23-11.18L9.23-11.18ZM64.55-37.55L64.55-37.55Q64.94-37.55 65.11-37.38 65.28-37.21 65.38-36.96L65.38-36.96Q65.86-37.01 66.38-36.79 66.89-36.57 66.99-36.38L66.99-36.38Q67.38-36.33 67.48-36.18 67.57-36.04 67.77-35.99L67.77-35.99 68.31-36.04Q68.5-35.84 69.06-35.64 69.62-35.45 69.72-35.21L69.72-35.21Q69.62-34.96 69.65-34.69 69.67-34.42 69.67-34.08L69.67-34.08Q69.53-33.35 69.21-32.76 68.89-32.18 68.65-31.64L68.65-31.64Q68.5-31.4 68.43-31.1 68.35-30.81 68.26-30.57L68.26-30.57Q68.16-30.37 68.09-30.2 68.01-30.03 67.91-29.83L67.91-29.83Q67.91-29.59 67.82-29.32 67.72-29.05 67.62-28.81L67.62-28.81Q67.62-28.52 67.57-28.39 67.52-28.27 67.52-28.17L67.52-28.17Q66.6-25.93 66.06-23.97 65.52-22.02 64.99-20.07L64.99-20.07Q64.74-19.48 64.5-18.6 64.25-17.72 63.89-16.53 63.52-15.33 63.11-13.99 62.69-12.65 62.32-11.5 61.96-10.35 61.69-9.55 61.42-8.74 61.37-8.64L61.37-8.64Q61.23-7.81 60.93-6.96 60.64-6.1 60.44-5.18L60.44-5.18Q60.2-4.88 60.15-4.52 60.1-4.15 59.91-3.81L59.91-3.81Q59.52-3.86 59.27-3.61L59.27-3.61Q59.22-3.22 59.35-2.88 59.47-2.54 59.47-2.15L59.47-2.15Q59.27-1.61 58.98-1.46 58.69-1.32 58.59-0.98L58.59-0.98Q58.25-1.07 58.08-0.88 57.91-0.68 57.71-0.68L57.71-0.68Q57.12-0.83 57.03-0.49L57.03-0.49Q56.73-0.59 56.64-0.42 56.54-0.24 56.44-0.2L56.44-0.2Q56.05-0.2 55.83-0.02 55.61 0.15 55.32 0.2L55.32 0.2Q55.12 0.1 54.93-0.02 54.73-0.15 54.58-0.29L54.58-0.29Q54.29-1.12 54.05-1.93 53.8-2.73 53.56-3.56L53.56-3.56Q53.46-3.96 53.32-4.3 53.17-4.64 53.07-5.03L53.07-5.03Q53.02-5.27 53.02-5.44 53.02-5.62 52.97-5.81L52.97-5.81Q52.88-6.05 52.78-6.3 52.68-6.54 52.58-6.79L52.58-6.79Q52.19-7.86 52-8.98L52-8.98Q51.75-9.81 51.53-10.62 51.31-11.43 51.12-12.26L51.12-12.26Q50.97-12.94 50.78-13.7 50.58-14.45 50.29-15.04L50.29-15.04Q50.19-15.82 49.87-16.53 49.56-17.24 49.56-17.97L49.56-17.97Q49.31-18.75 49.14-19.53 48.97-20.31 48.73-21.09L48.73-21.09Q48.63-21.48 48.48-21.83 48.33-22.17 48.24-22.51L48.24-22.51Q48.09-22.95 47.99-23.44 47.9-23.93 47.8-24.41L47.8-24.41Q47.65-24.85 47.5-25.27 47.36-25.68 47.21-26.12L47.21-26.12Q46.97-26.95 46.75-27.76 46.53-28.56 46.28-29.39L46.28-29.39Q46.04-30.32 45.82-31.23 45.6-32.13 45.06-32.96L45.06-32.96Q44.92-33.2 44.84-33.52 44.77-33.84 44.62-34.13L44.62-34.13Q44.72-34.52 44.67-35.03 44.62-35.55 44.82-35.84L44.82-35.84Q45.31-35.84 45.99-35.86 46.67-35.89 47.02-35.79L47.02-35.79Q47.21-35.84 47.33-35.94 47.46-36.04 47.65-36.08L47.65-36.08Q47.94-35.94 48.24-35.94L48.24-35.94Q48.68-35.94 48.92-36.13L48.92-36.13Q49.46-35.89 49.51-36.04 49.56-36.18 49.75-36.18L49.75-36.18Q50.04-36.08 50.19-35.77 50.34-35.45 50.48-35.21L50.48-35.21Q51.02-34.23 51.29-33.28 51.56-32.32 51.85-31.25L51.85-31.25Q52.19-30.27 52.49-29.32 52.78-28.37 53.02-27.39L53.02-27.39Q53.17-26.9 53.27-26.42 53.36-25.93 53.46-25.44L53.46-25.44Q53.61-24.9 53.8-24.44 54-23.97 54.19-23.44L54.19-23.44Q54.29-22.9 54.39-22.39 54.49-21.88 54.63-21.34L54.63-21.34Q54.73-20.95 54.88-20.61 55.02-20.26 55.12-19.87L55.12-19.87Q55.22-19.48 55.32-19.07 55.41-18.65 55.51-18.26L55.51-18.26Q55.76-17.29 56.05-16.33 56.34-15.38 56.59-14.4L56.59-14.4Q56.83-14.55 56.88-14.94 56.93-15.33 57.08-15.58L57.08-15.58Q57.17-16.16 57.39-16.85 57.61-17.53 57.81-18.12L57.81-18.12Q57.86-18.36 57.93-18.55 58-18.75 58.1-18.99L58.1-18.99Q58.25-19.29 58.3-19.6 58.34-19.92 58.44-20.26L58.44-20.26Q58.64-20.95 58.86-21.63 59.08-22.31 59.27-23L59.27-23Q59.47-23.63 59.61-24.32 59.76-25 60-25.59L60-25.59Q60.25-26.12 60.42-26.61 60.59-27.1 60.74-27.64L60.74-27.64Q60.88-28.17 60.98-28.71 61.08-29.25 61.32-29.69L61.32-29.69Q61.42-29.93 61.54-30.25 61.66-30.57 61.76-30.86L61.76-30.86Q62.01-31.64 62.2-32.42 62.4-33.2 62.74-33.98L62.74-33.98Q62.98-34.67 63.33-35.3 63.67-35.94 63.91-36.62L63.91-36.62Q64.11-37.11 64.25-37.26 64.4-37.4 64.55-37.55Z" opacity="1" transform="matrix(1,0,0,1,0,0)" fill="#a057da" class="wordmark-text-0" data-fill-palette-color="primary" id="text-0"></path></svg></g></svg></g></svg></g></svg></g><g></g></svg></g></svg></g></svg></g></svg></g><defs></defs></svg><rect width="320" height="360" fill="none" stroke="none" visibility="hidden"></rect></g></svg></g></svg>