<svg xmlns="http://www.w3.org/2000/svg" version="1.1" xmlns:xlink="http://www.w3.org/1999/xlink" xmlns:svgjs="http://svgjs.dev/svgjs" width="100" height="100" viewBox="0 0 2000 2000"><g transform="matrix(1,0,0,1,-0.28443113772425477,-0.28443113772459583)"><svg viewBox="0 0 334 334" data-background-color="#ffffff" preserveAspectRatio="xMidYMid meet" height="2000" width="2000" xmlns="http://www.w3.org/2000/svg" xmlns:xlink="http://www.w3.org/1999/xlink"><g id="tight-bounds" transform="matrix(1,0,0,1,0.04749999999998522,0.04750000000001364)"><svg viewBox="0 0 333.90454557049503 333.90454557049503" height="333.90454557049503" width="333.90454557049503"><g><svg></svg></g><g><svg viewBox="0 0 333.90454557049503 333.90454557049503" height="333.90454557049503" width="333.90454557049503"><g><path d="M0 166.952c0-92.205 74.747-166.952 166.952-166.952 92.205 0 166.952 74.747 166.953 166.952 0 92.205-74.747 166.952-166.953 166.953-92.205 0-166.952-74.747-166.952-166.953zM166.952 316.63c82.665 0 149.677-67.013 149.678-149.678 0-82.665-67.013-149.677-149.678-149.677-82.665 0-149.677 67.013-149.677 149.677 0 82.665 67.013 149.677 149.677 149.678z" data-fill-palette-color="tertiary" fill="#8d021f" stroke="transparent"></path><ellipse rx="160.27418187383762" ry="160.27418187383762" cx="166.95227278524752" cy="166.95227278524752" fill="#8d021f" stroke="transparent" stroke-width="0" fill-opacity="1" data-fill-palette-color="tertiary"></ellipse></g><g transform="matrix(1,0,0,1,70.09384968588215,71.17305217166896)"><svg viewBox="0 0 193.71684619873074 191.55844122715712" height="191.55844122715712" width="193.71684619873074"><g><svg viewBox="0 0 193.71684619873074 191.55844122715712" height="191.55844122715712" width="193.71684619873074"><g><svg viewBox="0 0 193.71684619873074 191.55844122715712" height="191.55844122715712" width="193.71684619873074"><g id="textblocktransform"><svg viewBox="0 0 193.71684619873074 191.55844122715712" height="191.55844122715712" width="193.71684619873074" id="textblock"><g><svg viewBox="0 0 193.71684619873074 191.55844122715712" height="191.55844122715712" width="193.71684619873074"><g transform="matrix(1,0,0,1,0,0)"><svg width="193.71684619873074" viewBox="0.5 -35.5 35.9 35.5" height="191.55844122715712" data-palette-color="#ffffff"><path d="M15.8-2.55Q15.7-1.1 14.28-0.55 12.85 0 9.15 0 5.45 0 2.98-0.68 0.5-1.35 0.5-2.4L0.5-2.4Q0.5-3.6 4.95-17.73 9.4-31.85 10.05-34L10.05-34Q10.3-34.65 14.08-35.08 17.85-35.5 22.18-35.5 26.5-35.5 26.95-34L26.95-34Q36.4-2.6 36.4-2.1 36.4-1.6 35.8-1.1L35.8-1.1Q34.4 0 30.25 0L30.25 0Q21.4 0 21.2-2.1L21.2-2.1 20.85-5.35 16.05-5.35 15.8-2.55ZM17.1-14.85L19.8-14.85 19.05-23.85 17.95-23.85 17.1-14.85Z" opacity="1" transform="matrix(1,0,0,1,0,0)" fill="#ffffff" class="wordmark-text-0" data-fill-palette-color="quaternary" id="text-0"></path></svg></g></svg></g></svg></g></svg></g><g></g></svg></g></svg></g></svg></g><defs></defs></svg><rect width="333.90454557049503" height="333.90454557049503" fill="none" stroke="none" visibility="hidden"></rect></g></svg></g></svg>